<?xml version="1.0" encoding="utf-8"?>
<!-- Generator: Adobe Illustrator 18.1.1, SVG Export Plug-In . SVG Version: 6.00 Build 0)  -->
<svg version="1.1" id="Layer_1" xmlns="http://www.w3.org/2000/svg" xmlns:xlink="http://www.w3.org/1999/xlink" x="0px" y="0px"
	 viewBox="0 0 5669.3 5669.3" enable-background="new 0 0 5669.3 5669.3" xml:space="preserve">
<path fill="#32353B" d="M2806,2818.3c3,0.2,1.9,2.6,2,4.1c0.1,9.6,0.2,19.3,0,28.9c-0.1,3.6,0.8,5,4.7,5c15.6-0.2,31.3-0.2,46.9,0
	c3.6,0,4.5-1.3,4.5-4.7c-0.2-11-0.2-22,0-32.9c0.1-3.6-1.2-4.5-4.7-4.5c-17.8,0.1-35.6,0.1-53.4,0.1c-0.6-3.1,1.7-2,3-2
	c19,0,38,0,57,0c0,15.3,0,30.7,0,46c-19,0-38-0.1-57,0.1c-2.5,0-3.1-0.6-3.1-3.1C2806.1,2843,2806,2830.6,2806,2818.3z"/>
<path fill="#3FE8E8" d="M2860.2,2819.6c-5.7,5.7-10.6,10.6-15.5,15.5c-8.7,8.7-8.7,8.7-17.5,0c-4.1-4.1-8.3-8.2-12.3-12.4
	c-1-1.1-2.9-1.8-2.6-3.9c1.8-0.8,2.4,0.8,3.2,1.6c5.9,5.8,11.9,11.6,17.6,17.7c2.1,2.2,3.4,2.4,5.5,0.1c5.1-5.5,10.5-10.7,15.9-15.9
	C2855.7,2821.1,2856.5,2819.4,2860.2,2819.6z"/>
</svg>
